<?xml version="1.0" encoding="utf-8"?>
<!-- Generator: Adobe Illustrator 19.0.0, SVG Export Plug-In . SVG Version: 6.00 Build 0)  -->
<svg version="1.1" id="Layer_1" xmlns="http://www.w3.org/2000/svg" xmlns:xlink="http://www.w3.org/1999/xlink" x="0px" y="0px"
	 viewBox="-253 386.5 103.4 21.5" style="enable-background:new -253 386.5 103.4 21.5;" xml:space="preserve">
<style type="text/css">
	.st0{fill:#FBAE1C;}
	.st1{fill:#A6A6A6;}
</style>
<path id="XMLID_2_" class="st0" d="M-250.1,395c0.5-0.1,1-0.1,1.5-0.2c1.1-0.2,2.3-0.4,3.4-0.5c0.4-0.1,0.8-0.1,1.2-0.2
	c0.1,0,0.1-0.1,0.2-0.2c0.6-1.2,1.2-2.4,1.8-3.6c0.3-0.6,0.6-1.2,0.9-1.8c0,0.1,0.1,0.1,0.1,0.2c0.9,1.7,1.8,3.5,2.6,5.2
	c0.1,0.1,0.1,0.2,0.2,0.2c1.2,0.2,2.5,0.4,3.7,0.5c0.7,0.1,1.4,0.2,2.2,0.3h0.1c-0.1,0.1-0.1,0.1-0.1,0.1c-1.4,1.4-2.7,2.7-4.1,4.1
	c-0.1,0.1-0.1,0.2-0.1,0.3c0.2,1.3,0.4,2.5,0.6,3.8c0.1,0.7,0.2,1.4,0.4,2.1c-0.1,0-0.1-0.1-0.2-0.1c-1.7-0.9-3.5-1.8-5.2-2.6
	c-0.1-0.1-0.2-0.1-0.3,0c-1.8,1-3.5,1.9-5.2,2.8c-0.1,0.1-0.1,0.1-0.2,0.1c0.1-0.8,0.2-1.5,0.4-2.3c0.2-1.1,0.3-2.3,0.6-3.4
	c0.1-0.4,0-0.6-0.3-0.8c-1.4-1.2-2.7-2.5-4.1-3.8C-250,395.1-250,395.1-250.1,395L-250.1,395z"/>
<path id="XMLID_3_" class="st0" d="M-229.8,395c0.5-0.1,1-0.1,1.5-0.2c1.1-0.2,2.3-0.4,3.4-0.5c0.4-0.1,0.8-0.1,1.1-0.2
	c0.1,0,0.1-0.1,0.2-0.2c0.6-1.2,1.2-2.4,1.8-3.6c0.3-0.6,0.6-1.2,0.9-1.8c0,0.1,0.1,0.1,0.1,0.2c0.9,1.7,1.8,3.5,2.6,5.2
	c0.1,0.1,0.1,0.2,0.2,0.2c1.2,0.2,2.5,0.4,3.7,0.5c0.7,0.1,1.4,0.2,2.2,0.3h0.1c-0.1,0.1-0.1,0.1-0.1,0.1c-1.4,1.4-2.7,2.7-4.1,4.1
	c-0.1,0.1-0.1,0.2-0.1,0.3c0.2,1.3,0.4,2.5,0.6,3.8c0.1,0.7,0.2,1.4,0.4,2.1c-0.1,0-0.1-0.1-0.2-0.1c-1.7-0.9-3.5-1.8-5.2-2.6
	c-0.1-0.1-0.2-0.1-0.3,0c-1.7,0.9-3.4,1.8-5.2,2.7c-0.1,0-0.1,0.1-0.2,0.1c0.1-0.8,0.2-1.5,0.4-2.3c0.2-1.1,0.3-2.3,0.6-3.4
	c0.1-0.4,0-0.6-0.3-0.8c-1.3-1.3-2.7-2.6-4-3.9C-229.7,395.1-229.8,395.1-229.8,395L-229.8,395z"/>
<path id="XMLID_4_" class="st0" d="M-209.2,395c0.5-0.1,1-0.1,1.5-0.2c1.1-0.2,2.3-0.4,3.4-0.5c0.4-0.1,0.8-0.1,1.1-0.2
	c0.1,0,0.1-0.1,0.2-0.2c0.6-1.2,1.2-2.4,1.8-3.6c0.3-0.6,0.6-1.2,0.9-1.8c0,0.1,0.1,0.1,0.1,0.2c0.9,1.7,1.8,3.5,2.6,5.2
	c0.1,0.1,0.1,0.2,0.2,0.2c1.2,0.2,2.5,0.4,3.7,0.5c0.7,0.1,1.4,0.2,2.2,0.3h0.1c-0.1,0.1-0.1,0.1-0.1,0.1c-1.4,1.4-2.7,2.7-4.1,4.1
	c-0.1,0.1-0.1,0.2-0.1,0.3c0.2,1.3,0.4,2.5,0.6,3.8c0.1,0.7,0.2,1.4,0.4,2.1c-0.1,0-0.1-0.1-0.2-0.1c-1.7-0.9-3.5-1.8-5.2-2.6
	c-0.1-0.1-0.2-0.1-0.3,0c-1.7,0.9-3.4,1.8-5.2,2.7c-0.1,0-0.1,0.1-0.2,0.1c0.1-0.8,0.2-1.5,0.4-2.3c0.2-1.1,0.3-2.3,0.6-3.4
	c0.1-0.4,0-0.6-0.3-0.8C-206.4,397.6-207.8,396.3-209.2,395C-209.1,395.1-209.2,395.1-209.2,395L-209.2,395z"/>
<path id="XMLID_5_" class="st0" d="M-189.6,395c0.5-0.1,1-0.1,1.5-0.2c1.1-0.2,2.3-0.4,3.4-0.5c0.4-0.1,0.8-0.1,1.1-0.2
	c0.1,0,0.1-0.1,0.2-0.2c0.6-1.2,1.2-2.4,1.8-3.6c0.3-0.6,0.6-1.2,0.9-1.8c0,0.1,0.1,0.1,0.1,0.2c0.9,1.7,1.8,3.5,2.6,5.2
	c0.1,0.1,0.1,0.2,0.2,0.2c1.2,0.2,2.5,0.4,3.7,0.5c0.7,0.1,1.4,0.2,2.2,0.3h0.1c-0.1,0.1-0.1,0.1-0.1,0.1c-1.4,1.4-2.7,2.7-4.1,4.1
	c-0.1,0.1-0.1,0.2-0.1,0.3c0.2,1.3,0.4,2.5,0.6,3.8c0.1,0.7,0.2,1.4,0.4,2.1c-0.1,0-0.1-0.1-0.2-0.1c-1.7-0.9-3.5-1.8-5.2-2.6
	c-0.1-0.1-0.2-0.1-0.3,0c-1.7,0.9-3.4,1.8-5.2,2.7c0,0.2,0,0.2-0.1,0.2c0.1-0.8,0.2-1.5,0.4-2.3c0.2-1.1,0.3-2.3,0.6-3.4
	c0.1-0.4,0-0.6-0.3-0.8c-1.3-1.3-2.7-2.6-4-3.9C-189.5,395.1-189.5,395.1-189.6,395L-189.6,395z"/>
<path id="XMLID_1_" class="st1" d="M-169.3,395c0.5-0.1,1-0.1,1.5-0.2c1.1-0.2,2.3-0.4,3.4-0.5c0.4-0.1,0.8-0.1,1.1-0.2
	c0.1,0,0.1-0.1,0.2-0.2c0.6-1.2,1.2-2.4,1.8-3.6c0.3-0.6,0.6-1.2,0.9-1.8c0,0.1,0.1,0.1,0.1,0.2c0.9,1.7,1.8,3.5,2.6,5.2
	c0.1,0.1,0.1,0.2,0.2,0.2c1.2,0.2,2.5,0.4,3.7,0.5c0.7,0.1,1.4,0.2,2.2,0.3h0.1c-0.1,0.1-0.1,0.1-0.1,0.1c-1.4,1.4-2.7,2.7-4.1,4.1
	c-0.1,0.1-0.1,0.2-0.1,0.3c0.2,1.3,0.4,2.5,0.6,3.8c0.1,0.7,0.2,1.4,0.4,2.1c-0.1,0-0.1-0.1-0.2-0.1c-1.7-0.9-3.5-1.8-5.2-2.6
	c-0.1-0.1-0.2-0.1-0.3,0c-1.7,0.9-3.4,1.8-5.2,2.7c-0.1,0-0.1,0.1-0.2,0.1c0.1-0.8,0.2-1.5,0.4-2.3c0.2-1.1,0.3-2.3,0.6-3.4
	c0.1-0.4,0-0.6-0.3-0.8C-166.5,397.6-167.9,396.3-169.3,395C-169.2,395.1-169.3,395.1-169.3,395L-169.3,395z"/>
<path id="XMLID_8_" class="st0" d="M-160.2,402.6c-0.1-0.1-0.2-0.1-0.3,0c-1.7,0.9-3.4,1.8-5.2,2.7c-0.1,0-0.1,0.1-0.2,0.1
	c0.1-0.8,0.2-1.5,0.4-2.3c0.2-1.1,0.3-2.3,0.6-3.4c0.1-0.4,0-0.6-0.3-0.8c-1.3-1.3-2.7-2.6-4-3.9c0,0.1-0.1,0.1-0.1,0l0,0
	c0.5-0.1,1-0.1,1.5-0.2c1.1-0.2,2.3-0.4,3.4-0.5c0.4-0.1,0.8-0.1,1.1-0.2c0.1,0,0.1-0.1,0.2-0.2c0.6-1.2,1.2-2.4,1.8-3.6
	c0.3-0.6,0.6-1.2,0.9-1.8c0,0.1,0.1,0.1,0.1,0.2"/>
</svg>
